<svg xmlns="http://www.w3.org/2000/svg" width="512" height="512" viewBox="0 0 512 512">
<g>
<path d="M 32.19 416.41 C21.61,411.14 18.00,403.34 18.00,385.77 C18.00,375.57 18.15,374.76 20.45,372.45 C22.72,370.19 23.65,370.00 32.45,370.00 L 42.00 370.00 L 42.01 241.25 L 42.02 112.50 L 44.37 107.44 C47.13,101.53 53.37,95.80 58.86,94.16 C61.74,93.30 112.35,93.00 256.62,93.01 L 450.50 93.02 L 455.50 95.38 C461.51,98.22 465.18,101.96 467.92,108.00 C469.93,112.45 469.96,113.88 469.98,241.25 L 470.00 370.00 L 479.55 370.00 C488.35,370.00 489.28,370.19 491.55,372.45 C493.85,374.76 494.00,375.57 494.00,385.77 C494.00,403.34 490.39,411.14 479.81,416.41 L 474.61 419.00 L 256.00 419.00 L 37.39 419.00 L 32.19 416.41 ZM 474.78 403.44 C478.31,400.97 480.00,396.63 480.00,390.05 L 480.00 384.00 L 398.21 384.00 L 316.41 384.00 L 315.26 388.32 C314.44,391.37 313.35,392.98 311.51,393.82 C307.80,395.50 204.20,395.50 200.49,393.82 C198.65,392.98 197.56,391.37 196.74,388.32 L 195.59 384.00 L 113.79 384.00 L 32.00 384.00 L 32.00 390.05 C32.00,396.63 33.69,400.97 37.22,403.44 C40.62,405.83 471.38,405.83 474.78,403.44 ZM 302.10 376.58 C302.45,374.43 303.56,372.06 304.56,371.33 C306.04,370.25 320.48,370.00 381.19,370.00 L 456.00 370.00 L 456.00 241.90 L 456.00 113.80 L 452.60 110.40 L 449.20 107.00 L 256.00 107.00 L 62.80 107.00 L 59.40 110.40 L 56.00 113.80 L 56.00 241.90 L 56.00 370.00 L 131.00 370.00 C204.67,370.00 206.04,370.04 208.00,372.00 C209.10,373.10 210.00,375.27 210.00,376.83 C210.00,378.39 210.30,379.97 210.68,380.34 C211.05,380.72 231.63,380.90 256.41,380.76 L 301.47 380.50 L 302.10 376.58 ZM 71.00 355.00 C69.02,353.02 69.00,351.67 69.00,238.72 C69.00,136.91 69.17,124.20 70.56,122.22 L 72.11 120.00 L 256.00 120.00 L 439.89 120.00 L 441.44 122.22 C442.83,124.20 443.00,136.91 443.00,238.72 C443.00,351.67 442.98,353.02 441.00,355.00 C439.01,356.99 437.67,357.00 256.00,357.00 C74.33,357.00 72.99,356.99 71.00,355.00 ZM 429.00 238.50 L 429.00 134.00 L 256.00 134.00 L 83.00 134.00 L 83.00 238.50 L 83.00 343.00 L 256.00 343.00 L 429.00 343.00 L 429.00 238.50 Z" fill="rgba(40,48,246,1)"/>
</g>
</svg>