<svg xmlns="http://www.w3.org/2000/svg" width="512" height="512" viewBox="0 0 512 512">
<g>
<path d="M 134.91 510.11 C120.47,505.47 110.98,493.97 109.00,478.72 C107.74,469.06 107.74,42.94 109.00,33.28 C110.52,21.54 116.31,12.19 125.78,6.17 C136.02,-0.35 129.61,-0.06 258.06,0.23 L 374.50 0.50 L 380.00 2.73 C392.35,7.74 401.25,19.67 403.05,33.64 C404.21,42.61 404.21,469.39 403.05,478.36 C401.25,492.33 392.35,504.26 380.00,509.27 L 374.50 511.50 L 257.50 511.70 C147.32,511.90 140.17,511.80 134.91,510.11 ZM 376.12 494.21 C379.45,492.46 382.60,489.80 384.48,487.12 L 387.50 482.83 L 387.79 452.42 L 388.08 422.00 L 280.73 422.00 C174.08,422.00 173.36,421.99 171.19,419.96 C168.25,417.22 168.25,411.78 171.19,409.04 C173.36,407.01 174.08,407.00 280.69,407.00 L 388.00 407.00 L 388.00 241.00 L 388.00 75.00 L 256.00 75.00 L 124.00 75.00 L 124.00 241.00 L 124.00 407.00 L 136.31 407.00 C147.32,407.00 148.85,407.22 150.81,409.04 C153.75,411.78 153.75,417.22 150.81,419.96 C148.85,421.78 147.32,422.00 136.27,422.00 L 123.92 422.00 L 124.21 452.42 L 124.50 482.83 L 127.52 487.12 C129.40,489.80 132.55,492.46 135.88,494.21 L 141.23 497.00 L 256.00 497.00 L 370.77 497.00 L 376.12 494.21 ZM 387.82 44.58 C387.50,29.27 387.48,29.13 384.48,24.88 C382.60,22.20 379.45,19.53 376.12,17.79 L 370.77 15.00 L 256.00 15.00 L 141.23 15.00 L 135.88 17.79 C132.55,19.53 129.40,22.20 127.52,24.88 C124.52,29.13 124.50,29.27 124.18,44.58 L 123.86 60.00 L 256.00 60.00 L 388.14 60.00 L 387.82 44.58 ZM 245.88 479.21 C242.54,477.46 239.40,474.80 237.52,472.12 C234.75,468.18 234.50,467.15 234.50,459.50 C234.50,451.85 234.75,450.82 237.52,446.88 C241.44,441.30 249.45,437.00 255.93,437.00 C262.57,437.00 270.64,441.27 274.49,446.84 C277.25,450.81 277.50,451.87 277.50,459.50 C277.50,467.13 277.25,468.19 274.49,472.16 C272.52,475.00 269.62,477.45 266.06,479.25 C258.81,482.93 252.98,482.91 245.88,479.21 ZM 260.81 464.96 C265.47,460.62 262.27,452.00 256.00,452.00 C252.17,452.00 249.00,455.39 249.00,459.50 C249.00,463.61 252.17,467.00 256.00,467.00 C257.44,467.00 259.61,466.08 260.81,464.96 ZM 221.19 42.96 C216.53,38.62 219.73,30.00 226.00,30.00 C229.83,30.00 233.00,33.39 233.00,37.50 C233.00,41.61 229.83,45.00 226.00,45.00 C224.56,45.00 222.39,44.08 221.19,42.96 ZM 251.19 42.96 C249.76,41.63 249.00,39.73 249.00,37.50 C249.00,35.27 249.76,33.37 251.19,32.04 C253.22,30.15 254.65,30.00 271.00,30.00 C287.35,30.00 288.78,30.15 290.81,32.04 C292.24,33.37 293.00,35.27 293.00,37.50 C293.00,39.73 292.24,41.63 290.81,42.96 C288.78,44.85 287.35,45.00 271.00,45.00 C254.65,45.00 253.22,44.85 251.19,42.96 Z" fill="rgba(40,48,246,1)"/>
</g>
</svg>