<svg xmlns="http://www.w3.org/2000/svg" width="512" height="512" viewBox="0 0 512 512">
<g>
<path d="M 152.05 452.53 C152.00,450.37 152.00,447.52 152.00,443.65 C152.00,429.33 152.07,428.84 154.45,426.45 C156.88,424.03 157.11,424.00 175.26,424.00 L 190.70 424.00 L 175.06 424.23 C161.74,424.42 156.50,424.83 156.50,425.67 C156.50,427.16 155.16,428.50 153.67,428.50 C152.84,428.50 152.42,432.88 152.22,443.42 L 152.05 452.53 ZM 264.15 360.16 C262.35,360.06 259.76,360.12 255.76,360.22 C248.01,360.41 244.50,360.86 244.50,361.67 C244.50,363.16 243.16,364.50 241.67,364.50 C241.02,364.50 240.35,365.79 240.17,367.36 C240.13,367.72 240.12,368.07 240.14,368.40 C239.86,366.33 240.63,364.28 242.45,362.45 C244.77,360.14 245.56,360.00 256.00,360.00 C259.83,360.00 262.37,360.02 264.15,360.16 ZM 271.77 369.75 C272.10,368.40 272.05,367.01 271.59,365.68 C271.86,366.44 272.00,367.23 272.00,368.00 C272.00,368.58 271.92,369.17 271.77,369.75 ZM 270.26 363.26 C270.04,362.98 269.79,362.70 269.53,362.44 C269.53,362.44 269.54,362.45 269.55,362.45 C269.80,362.71 270.04,362.98 270.26,363.26 Z" fill="rgba(40,46,248,1)"/>
<path d="M 154.66 461.17 L 151.94 458.33 L 152.22 443.42 C152.42,432.88 152.84,428.50 153.67,428.50 C155.16,428.50 156.50,427.16 156.50,425.67 C156.50,424.83 161.74,424.42 175.06,424.23 L 193.62 423.96 L 195.39 414.73 C196.36,409.65 197.40,404.26 197.70,402.75 L 198.25 400.00 L 115.24 400.00 C20.01,400.00 25.42,400.47 16.33,391.43 C7.31,382.46 8.00,396.35 8.00,224.00 C8.00,51.49 7.29,65.58 16.43,56.43 C25.69,47.18 2.46,48.00 256.00,48.00 C509.33,48.00 486.35,47.20 495.44,56.33 C504.79,65.71 504.06,50.98 503.76,226.00 L 503.50 379.50 L 500.84 384.50 C497.70,390.42 494.14,393.92 488.00,397.14 L 483.50 399.50 L 398.63 399.77 L 313.76 400.04 L 314.30 402.77 C314.60,404.27 315.64,409.66 316.62,414.75 L 318.39 424.00 L 336.74 424.00 C354.89,424.00 355.12,424.03 357.55,426.45 C359.93,428.84 360.00,429.31 360.00,444.00 C360.00,458.69 359.93,459.16 357.55,461.55 L 355.09 464.00 L 256.23 464.00 L 157.37 464.00 L 154.66 461.17 ZM 344.00 444.00 L 344.00 440.00 L 256.00 440.00 L 168.00 440.00 L 168.00 444.00 L 168.00 448.00 L 256.00 448.00 L 344.00 448.00 L 344.00 444.00 ZM 301.70 421.25 C301.40,419.74 300.36,414.34 299.38,409.25 L 297.61 400.00 L 256.00 400.00 L 214.39 400.00 L 212.62 409.25 C211.64,414.34 210.60,419.74 210.30,421.25 L 209.75 424.00 L 256.00 424.00 L 302.25 424.00 L 301.70 421.25 ZM 481.52 382.42 C486.67,379.98 488.00,376.01 488.00,363.10 L 488.00 352.00 L 255.92 352.00 L 23.84 352.00 L 24.17 364.42 C24.48,376.06 24.66,377.01 27.00,379.53 C28.38,381.01 30.40,382.59 31.50,383.05 C32.60,383.50 133.56,383.90 255.85,383.94 C456.35,383.99 478.52,383.85 481.52,382.42 ZM 488.00 204.90 C488.00,59.55 488.43,68.86 481.51,65.57 C478.49,64.14 456.86,64.01 254.60,64.24 L 31.04 64.50 L 27.77 67.77 L 24.50 71.04 L 24.24 203.52 L 23.98 336.00 L 255.99 336.00 L 488.00 336.00 L 488.00 204.90 ZM 242.61 373.11 C240.63,371.04 239.94,369.42 240.17,367.36 C240.35,365.79 241.02,364.50 241.67,364.50 C243.16,364.50 244.50,363.16 244.50,361.67 C244.50,360.86 248.01,360.41 255.76,360.22 C266.61,359.94 267.12,360.03 269.51,362.42 C272.79,365.70 272.81,370.28 269.55,373.55 C267.24,375.85 266.43,376.00 256.23,376.00 C245.57,376.00 245.32,375.95 242.61,373.11 Z" fill="rgba(40,48,246,1)"/>
</g>
</svg>