<svg xmlns="http://www.w3.org/2000/svg" width="512" height="512" viewBox="0 0 512 512">
<g>
<path d="M 123.19 146.73 C124.92,143.95 128.44,140.23 134.33,134.33 C140.43,128.24 143.79,125.05 146.04,123.45 C146.03,123.47 146.01,123.48 146.00,123.50 C145.32,124.32 145.14,125.00 145.61,125.00 C147.05,125.00 126.65,145.11 124.25,146.06 C123.84,146.22 123.49,146.45 123.19,146.73 ZM 162.04 162.41 C165.15,159.06 165.98,157.34 163.75,158.58 C163.06,158.96 166.54,155.16 171.48,150.14 C180.04,141.42 181.88,139.76 180.50,142.00 C179.39,143.79 180.46,143.44 182.46,141.78 C178.88,145.52 173.84,150.60 166.75,157.70 C165.08,159.37 163.51,160.94 162.04,162.41 ZM 137.77 182.87 C139.20,182.15 143.30,178.55 147.55,174.25 C152.30,169.44 155.89,166.06 155.53,166.75 C154.45,168.83 155.90,168.27 158.65,165.78 C146.05,178.27 141.06,182.66 137.77,182.87 ZM 387.62 260.00 C388.39,259.97 389.00,259.53 389.00,259.00 C389.00,258.45 389.87,258.00 390.94,258.00 C392.01,258.00 393.16,258.45 393.50,259.00 C393.79,259.46 394.31,259.77 395.00,259.94 C394.14,259.97 393.24,259.99 392.29,259.99 L 387.62 260.00 ZM 124.07 155.37 C122.27,153.08 121.42,151.38 122.05,149.16 C121.81,151.01 122.48,153.34 124.07,155.37 ZM 402.39 258.80 C405.16,257.76 408.02,256.17 410.14,254.25 C407.72,256.44 405.31,257.90 402.39,258.80 ZM 148.48 122.17 C148.90,122.05 149.30,122.00 149.70,122.00 C152.12,122.00 154.25,122.90 155.75,124.39 C155.63,124.28 155.50,124.18 155.37,124.07 C153.29,122.44 150.57,121.78 148.48,122.17 ZM 133.04 180.19 C133.01,180.16 132.98,180.13 132.95,180.10 C134.09,181.24 135.43,182.23 136.41,182.70 C135.28,182.34 134.27,181.42 133.04,180.19 ZM 190.51 132.17 C190.76,131.56 190.92,130.97 190.99,130.40 C190.97,130.94 190.84,131.49 190.51,132.17 Z" fill="rgba(39,47,246,1)"/>
<path d="M 173.45 510.54 C166.37,508.27 161.26,505.16 156.06,499.96 C153.28,497.18 151.00,494.06 151.00,493.02 C151.00,491.99 150.39,490.54 149.65,489.79 C147.48,487.63 146.38,483.00 141.49,455.50 C135.58,422.32 135.07,420.00 133.69,420.00 C133.07,420.00 129.18,418.31 125.05,416.25 C117.45,412.45 105.00,401.98 105.00,399.39 C105.00,398.62 104.61,398.00 104.12,398.00 C103.28,398.00 99.85,391.58 96.59,383.91 C95.75,381.94 94.60,376.31 94.04,371.41 C92.67,359.51 92.66,152.64 94.02,140.76 C95.19,130.54 97.90,122.66 102.04,117.45 C103.67,115.40 105.00,113.17 105.00,112.50 C105.00,111.39 110.34,106.13 117.38,100.31 C120.22,97.96 126.64,94.80 131.50,93.35 C134.03,92.60 134.70,91.68 135.77,87.48 C136.46,84.74 137.29,80.49 137.59,78.03 C137.90,75.58 138.35,73.25 138.59,72.86 C138.83,72.47 139.28,70.00 139.59,67.36 C139.90,64.72 140.34,62.26 140.57,61.88 C140.80,61.51 141.23,59.24 141.52,56.85 C141.82,54.46 142.30,51.70 142.60,50.72 C142.91,49.74 143.32,47.63 143.52,46.04 C145.07,33.77 147.49,24.36 149.65,22.21 C150.39,21.46 151.00,20.02 151.00,19.00 C151.00,15.78 160.43,7.17 167.72,3.71 L 174.50 0.50 L 240.02 0.50 L 305.54 0.50 L 312.13 3.74 C319.95,7.59 327.14,14.85 330.50,22.28 C332.06,25.72 334.84,38.34 338.68,59.36 L 344.50 91.23 L 350.62 93.67 C353.98,95.01 357.58,96.88 358.62,97.84 C359.65,98.79 362.16,100.58 364.20,101.83 C371.06,106.04 379.05,117.33 383.14,128.58 C384.96,133.58 385.36,137.34 385.76,152.75 L 386.22 171.00 L 393.09 171.00 C400.39,171.00 407.46,173.14 408.42,175.64 C408.73,176.46 409.42,176.86 409.96,176.53 C410.49,176.19 412.26,177.76 413.88,179.99 C418.34,186.15 419.28,193.74 418.83,220.00 C418.40,245.42 417.95,247.20 410.14,254.25 C404.93,258.96 395.19,261.74 393.50,259.00 C393.16,258.45 392.01,258.00 390.94,258.00 C389.87,258.00 389.00,258.45 389.00,259.00 C389.00,259.55 388.35,260.00 387.54,260.00 C386.29,260.00 386.05,268.14 385.77,318.75 C385.46,376.74 385.43,377.58 383.23,383.42 C376.92,400.12 365.48,412.29 350.31,418.44 L 344.50 420.80 L 338.68 452.65 C334.84,473.65 332.05,486.28 330.50,489.72 C327.14,497.15 319.95,504.41 312.13,508.26 L 305.55 511.50 L 241.52 511.67 C191.39,511.80 176.62,511.56 173.45,510.54 ZM 306.96 492.49 C315.57,486.68 316.33,484.70 321.95,453.50 C324.73,438.10 327.00,424.94 327.00,424.25 C327.00,423.26 308.80,423.00 239.42,423.00 L 151.84 423.00 L 152.42 425.75 C152.74,427.26 155.26,440.80 158.01,455.82 C162.31,479.33 163.37,483.62 165.61,486.56 C168.41,490.23 173.36,493.67 177.76,495.02 C179.27,495.48 207.95,495.77 241.50,495.68 L 302.50 495.50 L 306.96 492.49 ZM 338.62 405.00 C341.44,404.40 345.49,403.03 347.61,401.94 C353.74,398.82 361.66,391.41 364.10,386.51 C365.34,384.03 366.63,382.00 366.96,382.00 C367.30,382.00 367.61,381.21 367.67,380.25 C367.72,379.29 368.26,376.08 368.88,373.11 C370.37,365.97 370.46,146.74 368.99,138.89 C366.15,123.81 354.17,110.88 339.50,107.06 C336.86,106.36 302.88,106.01 239.27,106.01 C144.21,106.00 142.96,106.03 136.65,108.10 C127.80,111.00 118.62,119.32 113.93,128.67 L 110.50 135.50 L 110.50 256.00 L 110.50 376.50 L 113.44 382.50 C116.68,389.14 124.59,398.11 129.39,400.62 C131.10,401.51 135.26,403.20 138.62,404.37 C144.72,406.49 145.17,406.50 239.12,406.29 C302.44,406.15 335.19,405.73 338.62,405.00 ZM 399.37 241.93 L 402.00 239.85 L 402.00 215.43 C402.00,186.51 402.17,187.00 392.00,187.00 L 386.00 187.00 L 386.00 215.50 L 386.00 244.00 L 391.37 244.00 C395.28,244.00 397.44,243.44 399.37,241.93 ZM 327.00 87.75 C327.00,87.06 324.72,73.90 321.93,58.50 C316.49,28.39 315.59,25.81 308.79,20.68 C302.52,15.95 301.30,15.87 237.50,16.19 L 177.50 16.50 L 172.91 19.20 C164.12,24.37 163.59,25.68 158.01,56.18 C155.26,71.20 152.74,84.74 152.42,86.25 L 151.84 89.00 L 239.42 89.00 C308.80,89.00 327.00,88.74 327.00,87.75 ZM 132.92 180.08 C127.28,174.43 127.51,174.08 154.26,147.27 C175.17,126.30 179.02,122.87 182.18,122.36 C185.24,121.86 186.28,122.19 188.43,124.34 C192.46,128.37 191.90,132.13 186.36,138.04 C182.27,142.42 178.79,144.77 180.50,142.00 C181.88,139.76 180.04,141.42 171.48,150.14 C166.54,155.16 163.06,158.96 163.75,158.58 C166.25,157.19 164.91,159.52 160.79,163.71 C156.72,167.86 154.20,169.32 155.53,166.75 C155.89,166.06 152.30,169.44 147.55,174.25 C142.80,179.06 138.23,183.00 137.38,183.00 C136.54,183.00 134.53,181.68 132.92,180.08 ZM 124.07 155.37 C121.24,151.76 121.33,147.22 124.25,146.06 C126.65,145.11 147.05,125.00 145.61,125.00 C145.14,125.00 145.32,124.32 146.00,123.50 C147.77,121.37 152.28,121.64 155.37,124.07 C157.36,125.64 158.00,127.04 158.00,129.84 C158.00,133.23 157.00,134.53 145.74,145.76 C134.52,156.95 133.16,158.00 129.81,158.00 C127.04,158.00 125.64,157.35 124.07,155.37 Z" fill="rgba(39,48,247,1)"/>
</g>
</svg>