<svg xmlns="http://www.w3.org/2000/svg" width="668" height="668" viewBox="0 0 668 668">
<g>
<path d="M 44.73 544.69 C35.42,541.11 27.12,531.96 25.08,523.00 C23.40,515.64 23.71,490.46 25.53,486.95 C26.36,485.33 27.15,483.93 27.28,483.85 C27.40,483.77 33.58,483.44 41.00,483.10 L 54.50 482.50 L 55.00 313.00 L 55.50 143.50 L 57.95 139.50 C64.04,129.55 68.64,125.59 77.53,122.65 C82.17,121.12 101.84,121.01 335.53,121.24 L 588.50 121.50 L 594.21 124.18 C600.84,127.29 605.34,131.49 609.52,138.50 L 612.50 143.50 L 613.00 313.00 L 613.50 482.50 L 627.00 483.10 C634.42,483.44 640.60,483.77 640.72,483.85 C640.85,483.93 641.64,485.33 642.47,486.95 C644.46,490.79 644.61,516.21 642.69,523.61 C640.67,531.41 633.90,539.40 626.02,543.30 L 619.54 546.50 L 335.02 546.70 L 50.50 546.90 L 44.73 544.69 ZM 618.15 527.14 C623.67,524.29 625.47,520.35 625.85,510.25 L 626.19 501.00 L 519.10 501.00 L 412.00 501.00 L 412.00 503.35 C412.00,504.64 411.49,507.17 410.86,508.96 C408.71,515.14 410.34,515.01 333.78,514.90 C295.68,514.85 263.38,514.50 262.00,514.12 C259.14,513.35 256.00,507.92 256.00,503.75 L 256.00 501.00 L 149.00 501.00 L 42.00 501.00 L 42.00 508.93 C42.00,520.28 44.40,524.96 51.54,527.50 C57.36,529.58 614.10,529.22 618.15,527.14 ZM 394.06 491.61 C394.46,488.17 395.30,486.17 396.92,484.86 C399.13,483.07 403.13,483.00 497.12,483.00 L 595.02 483.00 L 594.76 315.75 L 594.50 148.50 L 592.11 145.31 C590.79,143.56 588.32,141.53 586.61,140.81 C581.94,138.84 85.99,138.87 81.32,140.84 C79.58,141.58 76.99,143.85 75.57,145.89 L 73.00 149.61 L 73.00 316.30 L 73.00 483.00 L 171.05 483.00 L 269.09 483.00 L 271.55 485.45 C273.31,487.22 274.00,489.00 274.00,491.79 C274.00,493.92 274.30,495.97 274.67,496.34 C275.05,496.71 301.93,496.90 334.42,496.76 L 393.50 496.50 L 394.06 491.61 ZM 92.92 463.08 L 90.00 460.15 L 90.00 310.67 L 90.00 161.18 L 93.08 158.59 L 96.15 156.00 L 334.00 156.00 L 571.85 156.00 L 574.92 158.59 L 578.00 161.18 L 578.00 310.67 L 578.00 460.15 L 575.08 463.08 L 572.15 466.00 L 334.00 466.00 L 95.85 466.00 L 92.92 463.08 ZM 559.75 311.25 L 560.01 175.00 L 334.00 175.00 L 108.00 175.00 L 108.00 310.83 C108.00,385.54 108.30,446.97 108.67,447.34 C109.04,447.70 210.62,447.89 334.42,447.75 L 559.50 447.50 L 559.75 311.25 Z" fill="rgba(255,255,255,1)"/>
</g>
</svg>