<svg xmlns="http://www.w3.org/2000/svg" width="568" height="568" viewBox="0 0 568 568">
<g>
<path d="M 149.60 566.02 C137.51,562.14 127.23,552.27 122.63,540.14 L 120.50 534.50 L 120.50 284.50 C120.50,44.92 120.58,34.27 122.33,29.00 C126.53,16.36 137.32,5.78 149.87,1.97 C156.39,-0.01 158.71,-0.04 286.00,0.23 L 415.50 0.50 L 420.72 2.64 C432.06,7.30 441.07,16.54 445.40,27.96 L 447.50 33.50 L 447.50 283.50 C447.50,522.80 447.42,533.73 445.68,538.91 C441.72,550.65 432.35,560.59 420.72,565.36 L 415.50 567.50 L 285.50 567.71 C160.34,567.90 155.28,567.84 149.60,566.02 ZM 416.54 548.63 C421.65,546.25 425.68,542.31 428.79,536.63 C430.29,533.89 430.54,529.41 430.81,500.75 L 431.12 468.00 L 311.52 468.00 L 191.91 468.00 L 189.45 465.55 C184.79,460.88 187.02,453.92 193.78,452.04 C196.24,451.36 236.99,451.01 314.25,451.01 L 431.00 451.00 L 431.00 267.00 L 431.00 83.00 L 284.00 83.00 L 137.00 83.00 L 137.00 266.90 L 137.00 450.81 L 150.92 451.15 C164.04,451.48 164.99,451.64 167.42,453.92 C171.04,457.33 171.02,463.05 167.37,465.93 C164.99,467.80 163.38,468.00 150.87,468.00 L 137.00 468.00 L 137.02 499.75 C137.04,528.32 137.23,531.90 138.87,535.50 C141.66,541.62 145.90,546.05 151.46,548.63 L 156.50 550.98 L 284.00 550.98 L 411.50 550.98 L 416.54 548.63 ZM 430.82 50.25 C430.40,33.38 429.96,31.67 424.33,24.98 C422.82,23.18 419.31,20.66 416.54,19.37 L 411.50 17.02 L 283.93 17.01 L 156.36 17.00 L 150.94 19.75 C144.89,22.81 139.68,28.89 138.05,34.78 C137.48,36.82 137.01,44.69 137.01,52.25 L 137.00 66.00 L 284.10 66.00 L 431.21 66.00 L 430.82 50.25 ZM 276.70 533.56 C263.90,528.99 256.94,516.74 259.98,504.09 C261.57,497.46 265.78,491.80 271.71,488.32 C275.83,485.89 277.55,485.50 284.00,485.52 C292.85,485.55 298.03,487.79 302.94,493.72 C306.91,498.52 309.43,506.87 308.64,512.65 C306.95,524.96 295.93,534.91 284.00,534.91 C282.08,534.91 278.79,534.30 276.70,533.56 ZM 289.55 515.55 C293.16,511.93 292.90,506.93 288.92,503.59 C287.23,502.17 285.02,501.00 284.00,501.00 C282.98,501.00 280.77,502.17 279.08,503.59 C276.73,505.56 276.00,507.00 276.00,509.63 C276.00,514.12 279.71,518.00 284.00,518.00 C285.95,518.00 288.00,517.09 289.55,515.55 ZM 245.63 47.93 C240.18,43.64 243.67,33.00 250.53,33.00 C253.68,33.00 259.00,37.95 259.00,40.88 C259.00,44.18 256.95,47.70 254.34,48.89 C250.80,50.51 248.60,50.26 245.63,47.93 ZM 278.45 47.55 C275.76,44.85 275.18,39.65 277.28,36.91 C279.94,33.44 282.70,33.00 301.48,33.00 C319.91,33.00 320.12,33.02 322.55,35.45 C326.06,38.97 325.98,45.09 322.37,47.93 C319.91,49.86 318.44,50.00 300.32,50.00 C281.04,50.00 280.89,49.98 278.45,47.55 Z" fill="rgba(255,255,255,1)"/>
</g>
</svg>