<svg xmlns="http://www.w3.org/2000/svg" width="560" height="560" viewBox="0 0 560 560">
<g>
<path d="M 173.50 507.16 C166.71,504.92 166.00,502.84 166.00,485.12 C166.00,470.70 166.09,470.00 168.41,467.31 L 170.82 464.50 L 191.10 464.00 L 211.37 463.50 L 214.05 450.79 L 216.74 438.08 L 125.12 437.77 C19.92,437.42 28.01,438.16 17.84,427.99 C8.19,418.36 9.00,435.11 9.00,245.00 C9.00,54.88 8.19,71.65 17.85,61.99 C21.92,57.92 25.07,55.78 29.01,54.41 C34.36,52.55 40.93,52.50 280.00,52.50 C519.07,52.50 525.64,52.55 530.99,54.41 C534.93,55.78 538.04,57.90 542.03,61.91 C551.84,71.80 551.00,54.56 551.00,245.00 C551.00,432.49 551.61,417.77 543.44,426.86 C538.29,432.58 531.94,435.87 523.73,437.06 C520.31,437.55 478.23,437.97 430.23,437.98 L 342.96 438.00 L 343.67 440.75 C344.05,442.26 345.31,448.00 346.45,453.50 L 348.53 463.50 L 368.85 464.00 L 389.18 464.50 L 391.59 467.31 C393.91,470.01 394.00,470.68 394.00,485.54 L 394.00 500.97 L 391.08 504.23 L 388.16 507.50 L 281.83 507.66 C223.35,507.75 174.60,507.52 173.50,507.16 ZM 376.00 485.50 L 376.00 481.00 L 280.00 481.00 L 184.00 481.00 L 184.00 485.50 L 184.00 490.00 L 280.00 490.00 L 376.00 490.00 L 376.00 485.50 ZM 330.02 463.25 C330.03,462.84 329.04,456.99 327.82,450.25 L 325.60 438.00 L 280.00 438.00 L 234.40 438.00 L 232.18 450.25 C230.96,456.99 229.97,462.84 229.98,463.25 C230.01,464.23 329.99,464.23 330.02,463.25 ZM 528.51 417.00 C533.31,412.52 534.00,410.02 534.00,397.05 L 534.00 385.00 L 280.00 385.00 L 26.00 385.00 L 26.00 397.11 C26.00,407.67 26.28,409.72 28.16,413.06 C32.39,420.60 8.96,419.99 281.17,419.73 L 525.84 419.50 L 528.51 417.00 ZM 534.00 223.89 L 534.00 80.77 L 531.84 76.92 C527.58,69.34 550.91,69.96 278.67,70.24 L 34.16 70.50 L 31.49 73.00 C25.64,78.46 26.00,68.58 26.00,223.95 L 26.00 367.00 L 280.00 367.00 L 534.00 367.00 L 534.00 223.89 ZM 265.45 408.55 C263.76,406.85 263.00,404.98 263.00,402.50 C263.00,400.02 263.76,398.15 265.45,396.45 C267.79,394.12 268.50,394.00 280.00,394.00 C291.50,394.00 292.21,394.12 294.55,396.45 C296.24,398.15 297.00,400.02 297.00,402.50 C297.00,404.98 296.24,406.85 294.55,408.55 C292.21,410.88 291.50,411.00 280.00,411.00 C268.50,411.00 267.79,410.88 265.45,408.55 Z" fill="rgba(254,254,254,1)"/>
</g>
</svg>