<svg xmlns="http://www.w3.org/2000/svg" width="560" height="560" viewBox="0 0 560 560">
<g>
<path d="M 189.93 558.63 C175.08,554.63 163.07,541.63 159.98,526.22 C159.35,523.07 158.43,518.63 157.93,516.35 C157.43,514.07 154.97,500.57 152.46,486.35 C149.96,472.14 147.59,460.26 147.20,459.95 C146.82,459.65 143.80,458.33 140.50,457.03 C131.99,453.66 127.36,450.55 120.50,443.58 C110.27,433.20 104.89,422.06 102.93,407.20 C102.26,402.20 102.02,355.66 102.24,274.50 C102.55,157.71 102.69,149.11 104.37,143.55 C110.18,124.32 123.02,109.89 140.50,102.97 C143.80,101.67 146.82,100.35 147.20,100.05 C147.59,99.74 149.94,88.02 152.41,74.00 C159.15,35.89 160.66,29.12 164.01,22.33 C167.76,14.71 175.09,7.84 184.00,3.60 L 190.50 0.50 L 259.88 0.22 C336.35,-0.09 335.26,-0.17 345.15,6.12 C351.62,10.24 358.70,18.09 361.51,24.28 C362.82,27.15 364.53,33.10 365.32,37.50 C366.74,45.34 374.41,87.71 375.81,95.40 C376.20,97.54 377.19,99.64 378.01,100.07 C378.83,100.49 383.01,102.44 387.29,104.39 C397.79,109.17 409.80,121.02 415.29,132.00 C420.60,142.62 421.96,150.42 421.98,170.25 L 422.00 187.00 L 430.25 187.02 C439.89,187.05 444.78,188.85 450.35,194.42 C457.37,201.43 457.47,202.04 457.49,235.00 C457.50,266.98 457.36,268.00 451.80,275.17 C450.24,277.19 446.63,280.00 443.78,281.42 C439.47,283.57 437.22,284.00 430.30,284.00 L 422.00 284.00 L 421.98 345.25 C421.96,413.66 421.87,414.84 415.29,428.00 C409.81,438.96 398.13,450.46 387.46,455.42 C383.08,457.46 378.83,459.48 378.01,459.91 C377.19,460.35 376.20,462.46 375.81,464.60 C374.41,472.29 366.74,514.66 365.32,522.50 C364.53,526.90 362.82,532.85 361.51,535.72 C358.70,541.91 351.62,549.77 345.15,553.87 C335.37,560.08 336.35,560.01 262.07,559.93 C211.85,559.88 193.33,559.55 189.93,558.63 ZM 333.54 539.63 C338.60,537.28 342.83,533.16 345.50,528.00 C346.29,526.48 348.80,514.72 351.08,501.87 C356.00,474.12 356.66,470.52 357.56,466.25 L 358.25 463.00 L 262.22 463.00 C171.29,463.00 166.21,463.09 166.56,464.75 C168.04,471.80 173.21,499.91 175.06,511.00 C178.27,530.27 181.18,535.43 191.50,540.13 C195.24,541.84 199.79,541.96 262.00,541.97 L 328.50 541.98 L 333.54 539.63 ZM 378.00 440.41 C387.53,435.89 394.95,428.64 399.62,419.27 L 403.50 411.50 L 403.76 281.22 L 404.03 150.93 L 400.92 143.47 C395.81,131.18 386.28,122.14 374.15,118.05 C368.01,115.98 367.12,115.97 260.23,116.23 L 152.50 116.50 L 147.00 119.08 C143.98,120.50 138.77,123.94 135.44,126.71 C130.56,130.78 128.51,133.47 124.94,140.51 L 120.50 149.26 L 120.50 279.88 L 120.50 410.50 L 124.35 418.37 C130.01,429.97 138.58,437.83 150.06,441.98 C155.36,443.89 158.36,443.94 263.50,443.72 L 371.50 443.50 L 378.00 440.41 ZM 435.93 265.54 C437.48,264.73 439.04,263.35 439.38,262.46 C439.72,261.56 440.00,249.19 440.00,234.96 C440.00,209.67 439.95,209.03 437.82,207.05 C435.36,204.75 430.97,203.69 425.93,204.17 L 422.50 204.50 L 422.24 235.75 L 421.97 267.00 L 427.54 267.00 C430.60,267.00 434.37,266.34 435.93,265.54 ZM 357.56 93.75 C356.79,90.12 356.88,90.57 351.08,58.12 C346.78,34.05 345.28,29.39 340.34,24.93 C332.64,17.97 339.07,18.50 262.42,18.50 L 193.34 18.50 L 188.45 21.52 C179.61,26.99 178.48,29.59 174.01,54.82 C170.41,75.10 167.84,88.72 166.47,94.75 L 165.96 97.00 L 262.11 97.00 L 358.25 97.00 L 357.56 93.75 ZM 147.36 199.05 C144.34,197.77 142.00,194.08 142.00,190.57 C142.00,188.00 145.65,183.92 168.18,161.34 C182.57,146.91 195.69,134.54 197.32,133.87 C203.13,131.46 210.24,138.02 208.63,144.29 C208.32,145.51 196.24,158.30 181.78,172.73 C154.60,199.87 152.71,201.30 147.36,199.05 ZM 135.59 169.92 C130.76,164.19 131.57,162.59 147.44,146.54 C162.02,131.79 164.69,130.54 170.08,135.92 C172.28,138.12 173.00,139.78 173.00,142.63 C173.00,146.16 172.08,147.34 159.71,159.71 C146.96,172.46 146.25,173.00 142.30,173.00 C138.92,173.00 137.71,172.44 135.59,169.92 Z" fill="rgba(255,255,255,1)"/>
</g>
</svg>