<svg xmlns="http://www.w3.org/2000/svg" width="300" height="300" viewBox="0 0 300 300">
<g>
<path d="M 99.21 280.49 C93.09,277.83 91.72,269.49 96.63,264.87 C98.51,263.11 100.54,262.50 105.53,262.18 L 112.00 261.77 L 112.00 248.45 L 112.00 235.14 L 76.25 234.82 C42.38,234.52 40.26,234.39 35.95,232.39 C29.30,229.32 24.45,224.62 21.29,218.18 L 18.50 212.50 L 18.50 126.50 C18.50,40.62 18.50,40.49 20.65,35.85 C23.40,29.91 29.91,23.40 35.85,20.65 L 40.50 18.50 L 150.00 18.50 L 259.50 18.50 L 264.15 20.65 C270.09,23.40 276.60,29.91 279.35,35.85 C281.50,40.49 281.50,40.62 281.50,126.50 L 281.50 212.50 L 278.71 218.18 C275.55,224.62 270.70,229.32 264.05,232.39 C259.74,234.39 257.62,234.52 223.75,234.82 L 188.00 235.14 L 188.00 248.57 L 188.00 262.00 L 193.92 262.00 C198.78,262.00 200.38,262.45 202.80,264.49 C208.41,269.20 207.21,277.76 200.57,280.54 C195.45,282.68 104.15,282.64 99.21,280.49 ZM 168.00 248.50 L 168.00 235.00 L 150.00 235.00 L 132.00 235.00 L 132.00 248.50 L 132.00 262.00 L 150.00 262.00 L 168.00 262.00 L 168.00 248.50 ZM 258.97 213.03 C261.45,210.55 262.22,207.55 261.82,201.92 L 261.50 197.50 L 161.16 197.00 L 60.83 196.50 L 58.41 193.69 C55.22,189.98 55.22,185.02 58.41,181.31 L 60.83 178.50 L 161.16 178.00 L 261.50 177.50 L 261.76 110.68 L 262.01 43.86 L 259.08 40.93 L 256.15 38.00 L 150.00 38.00 L 43.85 38.00 L 40.92 40.92 L 38.00 43.85 L 38.00 125.99 C38.00,210.56 38.01,210.72 41.91,213.72 C43.14,214.66 67.91,214.94 150.25,214.97 C255.23,215.00 257.03,214.97 258.97,213.03 ZM 79.36 159.06 C74.96,157.99 70.54,154.61 67.82,150.23 C65.51,146.52 65.50,146.33 65.50,112.50 L 65.50 78.50 L 67.87 74.68 C69.18,72.58 72.07,69.66 74.30,68.18 L 78.35 65.50 L 150.00 65.50 L 221.65 65.50 L 225.70 68.18 C227.93,69.66 230.82,72.58 232.13,74.68 L 234.50 78.50 L 234.50 112.50 L 234.50 146.50 L 232.13 150.32 C230.82,152.42 227.93,155.34 225.70,156.82 L 221.65 159.50 L 152.07 159.66 C113.81,159.75 81.09,159.48 79.36,159.06 ZM 215.00 112.50 L 215.00 85.00 L 150.00 85.00 L 85.00 85.00 L 85.00 112.50 L 85.00 140.00 L 150.00 140.00 L 215.00 140.00 L 215.00 112.50 ZM 105.92 119.08 C103.76,116.91 103.00,115.21 103.00,112.50 C103.00,107.42 107.42,103.00 112.50,103.00 C117.58,103.00 122.00,107.42 122.00,112.50 C122.00,115.21 121.24,116.91 119.08,119.08 C115.04,123.11 109.96,123.11 105.92,119.08 ZM 144.30 120.23 C137.07,114.54 140.88,103.00 150.00,103.00 C156.63,103.00 161.07,109.24 158.96,115.61 C157.01,121.54 149.13,124.02 144.30,120.23 ZM 180.92 119.08 C178.76,116.91 178.00,115.21 178.00,112.50 C178.00,107.42 182.42,103.00 187.50,103.00 C192.58,103.00 197.00,107.42 197.00,112.50 C197.00,115.21 196.24,116.91 194.08,119.08 C190.04,123.11 184.96,123.11 180.92,119.08 Z" fill="rgba(40,48,247,1)"/>
</g>
</svg>