<svg xmlns="http://www.w3.org/2000/svg" width="332" height="332" viewBox="0 0 332 332">
<g>
<path d="M 41.91 298.67 C39.48,297.39 36.15,294.43 34.50,292.09 L 31.50 287.83 L 31.19 246.17 C30.99,218.31 31.25,203.27 31.97,200.80 C33.39,195.94 37.26,191.44 42.38,188.71 C46.44,186.53 47.10,186.50 88.50,186.50 L 130.50 186.50 L 135.22 189.28 C138.29,191.08 140.92,193.71 142.72,196.78 L 145.50 201.50 L 145.50 243.50 C145.50,284.59 145.45,285.59 143.35,289.50 C140.65,294.52 137.51,297.47 132.77,299.45 C129.63,300.76 122.77,301.00 87.69,301.00 L 46.31 301.00 L 41.91 298.67 ZM 124.00 244.00 L 124.00 208.00 L 88.00 208.00 L 52.00 208.00 L 52.00 243.33 C52.00,262.77 52.30,278.97 52.67,279.33 C53.03,279.70 69.23,280.00 88.67,280.00 L 124.00 280.00 L 124.00 244.00 ZM 172.45 279.59 C164.57,276.16 163.70,264.97 170.99,260.67 C173.40,259.24 177.15,259.00 196.95,259.00 C222.02,259.00 224.27,259.41 226.95,264.41 C230.06,270.21 227.59,277.02 221.45,279.58 C216.77,281.54 176.94,281.55 172.45,279.59 ZM 170.83 237.29 C163.06,232.47 164.90,220.51 173.80,218.04 C177.86,216.91 286.45,216.54 291.94,217.64 C296.95,218.64 301.00,223.35 301.00,228.18 C301.00,231.42 300.34,232.86 297.60,235.60 L 294.20 239.00 L 233.85 238.97 C179.41,238.95 173.24,238.78 170.83,237.29 ZM 47.50 145.10 C40.26,143.26 35.18,139.07 32.55,132.77 C31.24,129.63 31.00,122.77 31.00,87.69 L 31.00 46.31 L 33.33 41.91 C34.61,39.48 37.57,36.15 39.91,34.50 L 44.17 31.50 L 75.97 31.21 L 107.77 30.92 L 110.82 33.97 C115.64,38.79 115.64,44.21 110.81,49.03 L 107.88 51.97 L 80.19 52.23 L 52.50 52.50 L 52.24 88.25 L 51.97 124.00 L 87.88 124.00 L 123.79 124.00 L 124.15 111.42 L 124.50 98.84 L 127.77 95.92 C131.42,92.66 135.46,92.15 139.84,94.41 C144.72,96.94 145.50,99.90 145.50,115.91 C145.50,130.06 145.42,130.64 142.72,135.22 C140.92,138.29 138.29,140.92 135.22,142.72 L 130.50 145.50 L 90.50 145.68 C68.50,145.78 49.15,145.51 47.50,145.10 ZM 173.28 124.32 C167.35,123.12 163.95,113.37 167.63,108.12 C171.09,103.18 172.86,103.00 218.07,103.00 C254.99,103.00 260.62,103.20 263.64,104.63 C270.35,107.82 271.99,115.74 267.08,121.23 L 264.17 124.50 L 219.83 124.63 C195.45,124.71 174.50,124.56 173.28,124.32 ZM 80.28 102.75 C76.04,98.76 70.98,94.01 69.05,92.18 C64.21,87.59 62.01,84.00 62.01,80.65 C62.00,76.54 65.48,72.24 69.90,70.91 C74.62,69.50 76.15,70.23 85.00,78.15 C88.57,81.34 91.79,84.08 92.15,84.23 C92.51,84.38 101.21,76.24 111.49,66.14 C131.71,46.28 134.33,44.57 139.91,47.45 C144.08,49.61 146.00,52.78 146.00,57.50 C146.00,61.46 145.47,62.08 123.25,84.12 C110.74,96.54 99.39,107.44 98.03,108.35 C96.67,109.26 93.86,110.00 91.78,110.00 C88.47,110.00 87.05,109.11 80.28,102.75 ZM 169.08 79.92 C163.92,74.77 165.22,66.43 171.68,63.12 C173.22,62.33 191.69,62.00 234.03,62.00 L 294.20 62.00 L 297.60 65.40 C302.51,70.31 302.11,76.79 296.63,81.23 C294.66,82.82 289.78,82.96 233.33,82.98 L 172.15 83.00 L 169.08 79.92 Z" fill="rgba(15,116,248,1)"/>
</g>
</svg>