<svg xmlns="http://www.w3.org/2000/svg" width="304" height="304" viewBox="0 0 304 304">
<g>
<path d="M 41.72 275.04 C33.69,273.48 26.54,268.21 22.45,260.82 L 19.50 255.50 L 19.50 152.00 L 19.50 48.50 L 21.70 44.38 C25.23,37.78 28.58,34.45 34.73,31.38 L 40.50 28.50 L 152.00 28.50 C260.14,28.50 263.62,28.56 267.50,30.43 C274.10,33.62 278.44,37.55 281.55,43.18 L 284.50 48.50 L 284.78 111.00 C285.00,160.35 284.79,174.01 283.78,175.90 C281.88,179.47 276.65,181.37 272.50,180.00 C265.74,177.77 266.00,180.39 266.00,115.50 C266.00,53.05 265.90,51.62 261.15,49.08 C259.74,48.33 226.69,48.00 151.52,48.00 L 43.91 48.00 L 41.52 50.39 C38.18,53.73 37.88,56.59 38.21,81.50 L 38.50 103.50 L 139.50 104.00 C195.05,104.28 241.26,104.88 242.19,105.33 C248.38,108.39 248.38,119.61 242.19,122.67 C241.26,123.12 195.05,123.72 139.50,124.00 L 38.50 124.50 L 38.21 184.50 C38.06,217.50 38.20,246.01 38.53,247.86 C38.86,249.71 40.21,252.30 41.52,253.61 L 43.91 256.00 L 93.31 256.00 C125.95,256.00 143.75,256.36 145.78,257.07 C154.05,259.96 154.05,272.04 145.78,274.93 C142.27,276.15 48.00,276.25 41.72,275.04 ZM 190.45 253.92 C172.91,236.47 171.00,234.24 171.00,231.22 C171.00,226.76 172.41,224.35 176.17,222.41 C181.88,219.46 184.32,220.87 199.21,235.72 C206.76,243.25 213.28,249.05 213.71,248.61 C214.15,248.18 224.69,237.77 237.14,225.48 C256.20,206.66 260.35,203.02 263.47,202.44 C267.75,201.64 271.60,203.85 273.82,208.38 C276.73,214.31 275.96,215.20 223.44,266.18 C218.95,270.54 216.41,272.22 213.64,272.67 L 209.90 273.28 L 190.45 253.92 ZM 71.42 84.11 C69.73,83.08 67.75,80.80 67.02,79.05 C65.22,74.71 67.58,69.64 72.49,67.30 C75.77,65.74 76.23,65.74 79.51,67.30 C84.42,69.64 86.78,74.71 84.98,79.05 C83.66,82.24 78.81,85.99 76.00,85.99 C75.18,85.99 73.11,85.15 71.42,84.11 ZM 109.42 84.11 C107.73,83.08 105.75,80.80 105.02,79.05 C103.22,74.71 105.58,69.64 110.49,67.30 C113.77,65.74 114.23,65.74 117.51,67.30 C122.42,69.64 124.78,74.71 122.98,79.05 C121.66,82.24 116.81,85.99 114.00,85.99 C113.18,85.99 111.11,85.15 109.42,84.11 ZM 147.42 84.11 C145.73,83.08 143.75,80.80 143.02,79.05 C141.22,74.71 143.58,69.64 148.49,67.30 C151.77,65.74 152.23,65.74 155.51,67.30 C160.42,69.64 162.78,74.71 160.98,79.05 C159.66,82.24 154.81,85.99 152.00,85.99 C151.18,85.99 149.11,85.15 147.42,84.11 Z" fill="rgba(1,158,249,1)"/>
</g>
</svg>